<svg width="34" height="26" viewBox="0 0 34 26" fill="none" xmlns="http://www.w3.org/2000/svg">
<path d="M27.0002 5.33325H23.6668V3.66659C23.6668 2.78253 23.3156 1.93468 22.6905 1.30956C22.0654 0.684441 21.2176 0.333252 20.3335 0.333252H3.66683C2.78278 0.333252 1.93493 0.684441 1.30981 1.30956C0.684686 1.93468 0.333496 2.78253 0.333496 3.66659V20.3333H3.66683C3.66683 20.9899 3.79616 21.64 4.04743 22.2467C4.29871 22.8533 4.667 23.4045 5.1313 23.8688C5.59559 24.3331 6.14679 24.7014 6.75341 24.9527C7.36004 25.2039 8.01022 25.3333 8.66683 25.3333C9.32344 25.3333 9.97362 25.2039 10.5803 24.9527C11.1869 24.7014 11.7381 24.3331 12.2024 23.8688C12.6667 23.4045 13.035 22.8533 13.2862 22.2467C13.5375 21.64 13.6668 20.9899 13.6668 20.3333H20.3335C20.3335 21.6593 20.8603 22.9311 21.798 23.8688C22.7357 24.8065 24.0074 25.3333 25.3335 25.3333C26.6596 25.3333 27.9314 24.8065 28.869 23.8688C29.8067 22.9311 30.3335 21.6593 30.3335 20.3333H33.6668V11.9999L27.0002 5.33325ZM8.66683 22.8333C8.33842 22.8331 8.01324 22.7683 7.70987 22.6426C7.4065 22.5168 7.13087 22.3325 6.89872 22.1002C6.66657 21.8679 6.48246 21.5921 6.35688 21.2887C6.2313 20.9852 6.16672 20.66 6.16683 20.3316C6.16694 20.0032 6.23174 19.678 6.35751 19.3746C6.48329 19.0712 6.6676 18.7956 6.8999 18.5635C7.1322 18.3313 7.40795 18.1472 7.71141 18.0216C8.01487 17.8961 8.34009 17.8315 8.6685 17.8316C9.33176 17.8318 9.96777 18.0955 10.4366 18.5647C10.9055 19.0338 11.1687 19.67 11.1685 20.3333C11.1683 20.9965 10.9046 21.6325 10.4354 22.1014C9.96628 22.5702 9.3301 22.8335 8.66683 22.8333ZM3.66683 15.3333V3.66659H20.3335V15.3333H3.66683ZM25.3335 22.8333C25.0051 22.8331 24.6799 22.7683 24.3765 22.6426C24.0732 22.5168 23.7975 22.3325 23.5654 22.1002C23.3332 21.8679 23.1491 21.5921 23.0236 21.2887C22.898 20.9852 22.8334 20.66 22.8335 20.3316C22.8336 20.0032 22.8984 19.678 23.0242 19.3746C23.15 19.0712 23.3343 18.7956 23.5666 18.5635C23.7989 18.3313 24.0746 18.1472 24.3781 18.0216C24.6815 17.8961 25.0068 17.8315 25.3352 17.8316C25.9984 17.8318 26.6344 18.0955 27.1033 18.5647C27.5721 19.0338 27.8354 19.67 27.8352 20.3333C27.835 20.9965 27.5713 21.6325 27.1021 22.1014C26.633 22.5702 25.9968 22.8335 25.3335 22.8333Z" fill="white"/>
</svg>
