<svg width="20" height="34" viewBox="0 0 20 34" fill="none" xmlns="http://www.w3.org/2000/svg">
<path d="M16.6647 11.1666H19.998C19.998 6.43825 15.4064 4.28159 11.6647 3.78492V0.333252H8.33138V3.78492C4.58971 4.28159 -0.00195312 6.43825 -0.00195312 11.1666C-0.00195312 15.6766 4.44138 18.0216 8.33138 18.5499V26.8333C5.91805 26.4149 3.33138 25.1266 3.33138 22.8333H-0.00195312C-0.00195312 27.1483 4.03971 29.6983 8.33138 30.2266V33.6666H11.6647V30.2166C15.4064 29.7199 19.998 27.5616 19.998 22.8333C19.998 18.1049 15.4064 15.9483 11.6647 15.4516V7.16659C13.8814 7.56492 16.6647 8.73492 16.6647 11.1666ZM3.33138 11.1666C3.33138 8.73492 6.11471 7.56492 8.33138 7.16659V15.1649C6.04638 14.7433 3.33138 13.4949 3.33138 11.1666ZM16.6647 22.8333C16.6647 25.2649 13.8814 26.4349 11.6647 26.8333V18.8333C13.8814 19.2316 16.6647 20.4016 16.6647 22.8333Z" fill="white"/>
</svg>
