<svg width="30" height="34" viewBox="0 0 30 34" fill="none" xmlns="http://www.w3.org/2000/svg">
<path d="M13.83 0.658387C14.4877 0.412307 15.2063 0.380226 15.8833 0.566721L16.17 0.658387L27.8367 5.03339C28.4282 5.2552 28.9445 5.64056 29.3255 6.14456C29.7064 6.64855 29.9363 7.25043 29.9883 7.88005L30 8.15505V17.0934C29.9999 19.7941 29.2707 22.4447 27.8893 24.7654C26.508 27.0861 24.5257 28.9907 22.1517 30.2784L21.7083 30.5101L16.1183 33.3051C15.8105 33.4587 15.4743 33.5472 15.1308 33.565C14.7872 33.5828 14.4437 33.5295 14.1217 33.4084L13.8817 33.3051L8.29167 30.5101C5.87602 29.3022 3.83129 27.4645 2.37334 25.1911C0.915388 22.9176 0.0983009 20.2927 0.00833352 17.5934L0 17.0934V8.15505C9.69175e-06 7.5236 0.179378 6.90514 0.517223 6.37167C0.855068 5.8382 1.33749 5.41167 1.90833 5.14172L2.16333 5.03339L13.83 0.658387ZM15 3.78005L3.33333 8.15505V17.0934C3.33338 19.1851 3.89576 21.2383 4.96159 23.038C6.02743 24.8378 7.55752 26.3179 9.39167 27.3234L9.78333 27.5284L15 30.1367L20.2167 27.5284C22.0879 26.593 23.6731 25.1716 24.8064 23.4132C25.9397 21.6547 26.5794 19.6239 26.6583 17.5334L26.6667 17.0934V8.15505L15 3.78005ZM13.5717 10.5867C13.7903 10.2217 14.1402 9.95412 14.5498 9.83881C14.9593 9.72349 15.3975 9.76917 15.7744 9.96649C16.1514 10.1638 16.4386 10.4978 16.5772 10.9001C16.7158 11.3024 16.6954 11.7424 16.52 12.1301L16.4283 12.3017L14.6117 15.3351H18.3033C19.5467 15.3351 20.3383 16.6217 19.8367 17.7134L19.7467 17.8834L16.43 23.4134C16.2133 23.7823 15.863 24.0538 15.4517 24.1716C15.0403 24.2893 14.5994 24.2444 14.2203 24.0461C13.8412 23.8477 13.5529 23.5112 13.415 23.1061C13.2772 22.701 13.3005 22.2584 13.48 21.8701L13.5717 21.6984L15.3883 18.6667H11.6967C11.4151 18.6667 11.1381 18.5962 10.8909 18.4614C10.6437 18.3267 10.4343 18.1321 10.2817 17.8955C10.1292 17.6589 10.0384 17.3878 10.0177 17.107C9.99703 16.8263 10.0471 16.5448 10.1633 16.2884L10.2533 16.1167L13.5717 10.5867Z" fill="white"/>
</svg>
